<svg xmlns="http://www.w3.org/2000/svg" height="32" width="32" version="1.1" id="svg3814"><path d="M6.719 13.244a7.212 7.212 0 00-3.656 1.85c.538-2.6 1.569-5.662 3.225-9.606a1.009 1.009 0 00-.531-1.313 1.01 1.01 0 00-1.313.531C2.006 10.493-.225 16.95.95 21.925c.056.244.119.488.194.719a7.249 7.249 0 008.188 4.85c3.931-.719 6.544-4.506 5.819-8.438-.719-3.925-4.5-6.537-8.431-5.813zm24.787 5.819c-.719-3.931-4.506-6.544-8.438-5.819a7.212 7.212 0 00-3.656 1.85c.538-2.6 1.569-5.662 3.225-9.606a1.01 1.01 0 00-.531-1.313 1.01 1.01 0 00-1.313.531c-2.431 5.787-4.669 12.238-3.494 17.212.056.244.119.488.194.719a7.248 7.248 0 008.187 4.85c3.931-.712 6.544-4.494 5.825-8.425z" fill="#555" id="path3812" fill-opacity=".667"/></svg>