<?xml version="1.0" encoding="UTF-8" standalone="no"?>
<svg
   xmlns:dc="http://purl.org/dc/elements/1.1/"
   xmlns:cc="http://creativecommons.org/ns#"
   xmlns:rdf="http://www.w3.org/1999/02/22-rdf-syntax-ns#"
   xmlns:svg="http://www.w3.org/2000/svg"
   xmlns="http://www.w3.org/2000/svg"
   xmlns:sodipodi="http://sodipodi.sourceforge.net/DTD/sodipodi-0.dtd"
   xmlns:inkscape="http://www.inkscape.org/namespaces/inkscape"
   height="32"
   width="32"
   version="1.1"
   id="svg3814"
   sodipodi:docname="openquote1.svg"
   inkscape:version="0.92.5 (2060ec1f9f, 2020-04-08)">
  <metadata
     id="metadata3820">
    <rdf:RDF>
      <cc:Work
         rdf:about="">
        <dc:format>image/svg+xml</dc:format>
        <dc:type
           rdf:resource="http://purl.org/dc/dcmitype/StillImage" />
      </cc:Work>
    </rdf:RDF>
  </metadata>
  <defs
     id="defs3818" />
  <sodipodi:namedview
     pagecolor="#ffffff"
     bordercolor="#666666"
     borderopacity="1"
     objecttolerance="10"
     gridtolerance="10"
     guidetolerance="10"
     inkscape:pageopacity="0"
     inkscape:pageshadow="2"
     inkscape:window-width="1366"
     inkscape:window-height="706"
     id="namedview3816"
     showgrid="false"
     inkscape:zoom="16.59375"
     inkscape:cx="5.3032015"
     inkscape:cy="16"
     inkscape:window-x="0"
     inkscape:window-y="25"
     inkscape:window-maximized="1"
     inkscape:current-layer="svg3814" />
  <path
     d="M6.719 13.244a7.212 7.212 0 00-3.656 1.85c.538-2.6 1.569-5.662 3.225-9.606a1.009 1.009 0 00-.531-1.313 1.01 1.01 0 00-1.313.531C2.006 10.493-.225 16.95.95 21.925c.056.244.119.488.194.719a7.249 7.249 0 008.188 4.85c3.931-.719 6.544-4.506 5.819-8.438-.719-3.925-4.5-6.537-8.431-5.813zm24.787 5.819c-.719-3.931-4.506-6.544-8.438-5.819a7.212 7.212 0 00-3.656 1.85c.538-2.6 1.569-5.662 3.225-9.606a1.01 1.01 0 00-.531-1.313 1.01 1.01 0 00-1.313.531c-2.431 5.787-4.669 12.238-3.494 17.212.056.244.119.488.194.719a7.248 7.248 0 008.187 4.85c3.931-.712 6.544-4.494 5.825-8.425z"
     fill="#ccc"
     id="path3812"
     style="fill:#555555;fill-opacity:0.66666669" />
</svg>
